<svg width="800" height="800" viewBox="0 0 800 800" fill="none" xmlns="http://www.w3.org/2000/svg">
<g clip-path="url(#clip0_588_5)">
<path fill-rule="evenodd" clip-rule="evenodd" d="M200 700.001V166.667C200.053 149.002 207.093 132.076 219.584 119.585C232.076 107.094 249.002 100.053 266.667 100.001H300V66.6673C300.026 57.8349 303.547 49.3717 309.792 43.1262C316.038 36.8807 324.501 33.3604 333.333 33.334H466.667C475.499 33.3604 483.962 36.8807 490.208 43.1262C496.453 49.3717 499.974 57.8349 500 66.6673V100.001H533.333C550.998 100.053 567.925 107.094 580.416 119.585C592.907 132.076 599.947 149.002 600 166.667V700.001C599.947 717.665 592.907 734.592 580.416 747.083C567.925 759.574 550.998 766.615 533.333 766.667H266.667C249.002 766.615 232.076 759.574 219.584 747.083C207.093 734.592 200.053 717.665 200 700.001ZM243.096 143.097C236.845 149.348 233.333 157.827 233.333 166.667V700.001C233.333 708.841 236.845 717.32 243.096 723.571C249.348 729.822 257.826 733.334 266.667 733.334H533.333C542.174 733.334 550.652 729.822 556.904 723.571C563.155 717.32 566.667 708.841 566.667 700.001V166.667C566.667 157.827 563.155 149.348 556.904 143.097C550.652 136.846 542.174 133.334 533.333 133.334H466.667V66.6673H333.333V133.334H266.667C257.826 133.334 249.348 136.846 243.096 143.097Z" fill="black"/>
</g>
<defs>
<clipPath id="clip0_588_5">
<rect width="800" height="800" fill="white"/>
</clipPath>
</defs>
</svg>
